<svg id="visual" viewBox="0 0 900 600" width="900" height="600" xmlns="http://www.w3.org/2000/svg" xmlns:xlink="http://www.w3.org/1999/xlink" version="1.1"><rect x="0" y="0" width="900" height="600" fill="#001220"></rect><defs><linearGradient id="grad1_0" x1="33.3%" y1="0%" x2="100%" y2="100%"><stop offset="20%" stop-color="#001220" stop-opacity="1"></stop><stop offset="80%" stop-color="#001220" stop-opacity="1"></stop></linearGradient></defs><defs><linearGradient id="grad2_0" x1="0%" y1="0%" x2="66.7%" y2="100%"><stop offset="20%" stop-color="#001220" stop-opacity="1"></stop><stop offset="80%" stop-color="#001220" stop-opacity="1"></stop></linearGradient></defs><g transform="translate(900, 0)"><path d="M0 378.6C-66.5 368.9 -133.1 359.1 -189.3 327.9C-245.5 296.6 -291.5 243.7 -321.3 185.5C-351.1 127.3 -364.9 63.6 -378.6 0L0 0Z" fill="#01aadd"></path></g><g transform="translate(0, 600)"><path d="M0 -378.6C61.2 -360.7 122.5 -342.8 181 -313.5C239.5 -284.2 295.4 -243.4 327.9 -189.3C360.3 -135.1 369.5 -67.6 378.6 0L0 0Z" fill="#01aadd"></path></g></svg>